<?xml version="1.0" encoding="UTF-8" standalone="no"?><svg xmlns="http://www.w3.org/2000/svg" xmlns:xlink="http://www.w3.org/1999/xlink" contentScriptType="application/ecmascript" contentStyleType="text/css" height="1013px" preserveAspectRatio="none" style="width:1527px;height:1013px;" version="1.1" viewBox="0 0 1527 1013" width="1527px" zoomAndPan="magnify"><defs/><g><text fill="#000000" font-family="Helvetica" font-size="12" lengthAdjust="spacingAndGlyphs" textLength="421" x="552.25" y="21.1387">01 - Proceso actual (AS-IS) - Reserva de cita con atención personal</text><ellipse cx="231.25" cy="54.2676" fill="#17302B" rx="10" ry="10" style="stroke: none; stroke-width: 1.0;"/><path d="M407.75,82.2832 L407.75,97.252 L387.75,101.252 L407.75,105.252 L407.75,120.2207 A0,0 0 0 0 407.75,120.2207 L632.75,120.2207 A0,0 0 0 0 632.75,120.2207 L632.75,92.2832 L622.75,82.2832 L407.75,82.2832 A0,0 0 0 0 407.75,82.2832 " fill="#FDECEA" style="stroke: #B4413C; stroke-width: 1.0;"/><path d="M622.75,82.2832 L622.75,92.2832 L632.75,92.2832 L622.75,82.2832 " fill="#FDECEA" style="stroke: #B4413C; stroke-width: 1.0;"/><text fill="#5A1F1C" font-family="Helvetica" font-size="12" font-weight="bold" lengthAdjust="spacingAndGlyphs" textLength="72" x="413.75" y="98.4219">Problema:</text><text fill="#5A1F1C" font-family="Helvetica" font-size="12" lengthAdjust="spacingAndGlyphs" textLength="128" x="489.75" y="98.4219">depende del horario</text><text fill="#5A1F1C" font-family="Helvetica" font-size="12" lengthAdjust="spacingAndGlyphs" textLength="171" x="413.75" y="112.3906">de atención y genera colas</text><rect fill="#FFFFFF" height="33.9688" rx="12.5" ry="12.5" style="stroke: #7A8C88; stroke-width: 1.5;" width="313" x="74.75" y="84.2676"/><text fill="#17302B" font-family="Helvetica" font-size="12" lengthAdjust="spacingAndGlyphs" textLength="293" x="84.75" y="105.4063">Acude a ventanilla o llama a la central de citas</text><rect fill="#FFFFFF" height="33.9688" rx="12.5" ry="12.5" style="stroke: #7A8C88; stroke-width: 1.5;" width="171" x="145.75" y="297.1426"/><text fill="#17302B" font-family="Helvetica" font-size="12" lengthAdjust="spacingAndGlyphs" textLength="151" x="155.75" y="318.2813">Dictar datos personales</text><rect fill="#FFFFFF" height="33.9688" rx="12.5" ry="12.5" style="stroke: #7A8C88; stroke-width: 1.5;" width="240" x="111.25" y="468.0488"/><text fill="#17302B" font-family="Helvetica" font-size="12" lengthAdjust="spacingAndGlyphs" textLength="220" x="121.25" y="489.1875">Indicar aseguradora y especialidad</text><rect fill="#FFFFFF" height="33.9688" rx="12.5" ry="12.5" style="stroke: #7A8C88; stroke-width: 1.5;" width="165" x="20" y="727.9238"/><text fill="#17302B" font-family="Helvetica" font-size="12" lengthAdjust="spacingAndGlyphs" textLength="145" x="30" y="749.0625">Volver a llamar otro día</text><ellipse cx="102.5" cy="792.8926" fill="#FFFFFF" rx="11" ry="11" style="stroke: #17302B; stroke-width: 1.0;"/><ellipse cx="102.5" cy="792.8926" fill="#17302B" rx="6" ry="6" style="stroke: #8B9795; stroke-width: 1.0;"/><rect fill="#FFFFFF" height="33.9688" rx="12.5" ry="12.5" style="stroke: #7A8C88; stroke-width: 1.5;" width="104" x="308" y="727.9238"/><text fill="#17302B" font-family="Helvetica" font-size="12" lengthAdjust="spacingAndGlyphs" textLength="84" x="318" y="749.0625">Elegir horario</text><path d="M473,905.7832 L473,920.752 L453,924.752 L473,928.752 L473,943.7207 A0,0 0 0 0 473,943.7207 L725,943.7207 A0,0 0 0 0 725,943.7207 L725,915.7832 L715,905.7832 L473,905.7832 A0,0 0 0 0 473,905.7832 " fill="#FDECEA" style="stroke: #B4413C; stroke-width: 1.0;"/><path d="M715,905.7832 L715,915.7832 L725,915.7832 L715,905.7832 " fill="#FDECEA" style="stroke: #B4413C; stroke-width: 1.0;"/><text fill="#5A1F1C" font-family="Helvetica" font-size="12" font-weight="bold" lengthAdjust="spacingAndGlyphs" textLength="72" x="479" y="921.9219">Problema:</text><text fill="#5A1F1C" font-family="Helvetica" font-size="12" lengthAdjust="spacingAndGlyphs" textLength="143" x="555" y="921.9219">no recibe confirmación</text><text fill="#5A1F1C" font-family="Helvetica" font-size="12" lengthAdjust="spacingAndGlyphs" textLength="231" x="479" y="935.8906">ni recordatorio escrito → ausentismo</text><rect fill="#FFFFFF" height="33.9688" rx="12.5" ry="12.5" style="stroke: #7A8C88; stroke-width: 1.5;" width="186" x="267" y="907.7676"/><text fill="#17302B" font-family="Helvetica" font-size="12" lengthAdjust="spacingAndGlyphs" textLength="166" x="277" y="928.9063">Anotar los datos de la cita</text><ellipse cx="360" cy="974.7207" fill="#FFFFFF" rx="11" ry="11" style="stroke: #17302B; stroke-width: 1.0;"/><ellipse cx="360" cy="974.7207" fill="#17302B" rx="6" ry="6" style="stroke: #8B9795; stroke-width: 1.0;"/><rect fill="#FFFFFF" height="33.9688" rx="12.5" ry="12.5" style="stroke: #7A8C88; stroke-width: 1.5;" width="217" x="838.25" y="140.2207"/><text fill="#17302B" font-family="Helvetica" font-size="12" lengthAdjust="spacingAndGlyphs" textLength="197" x="848.25" y="161.3594">Solicitar número de documento</text><rect fill="#FFFFFF" height="33.9688" rx="12.5" ry="12.5" style="stroke: #7A8C88; stroke-width: 1.5;" width="274" x="809.75" y="194.1895"/><text fill="#17302B" font-family="Helvetica" font-size="12" lengthAdjust="spacingAndGlyphs" textLength="254" x="819.75" y="215.3281">Buscar al paciente en el sistema interno</text><path d="M1079.75,366.1113 L1079.75,381.0801 L1059.75,385.0801 L1079.75,389.0801 L1079.75,404.0488 A0,0 0 0 0 1079.75,404.0488 L1307.75,404.0488 A0,0 0 0 0 1307.75,404.0488 L1307.75,376.1113 L1297.75,366.1113 L1079.75,366.1113 A0,0 0 0 0 1079.75,366.1113 " fill="#FDECEA" style="stroke: #B4413C; stroke-width: 1.0;"/><path d="M1297.75,366.1113 L1297.75,376.1113 L1307.75,376.1113 L1297.75,366.1113 " fill="#FDECEA" style="stroke: #B4413C; stroke-width: 1.0;"/><text fill="#5A1F1C" font-family="Helvetica" font-size="12" font-weight="bold" lengthAdjust="spacingAndGlyphs" textLength="72" x="1085.75" y="382.25">Problema:</text><text fill="#5A1F1C" font-family="Helvetica" font-size="12" lengthAdjust="spacingAndGlyphs" textLength="131" x="1161.75" y="382.25">errores de digitación</text><text fill="#5A1F1C" font-family="Helvetica" font-size="12" lengthAdjust="spacingAndGlyphs" textLength="138" x="1085.75" y="396.2188">y registros duplicados</text><rect fill="#FFFFFF" height="33.9688" rx="12.5" ry="12.5" style="stroke: #7A8C88; stroke-width: 1.5;" width="226" x="833.75" y="368.0957"/><text fill="#17302B" font-family="Helvetica" font-size="12" lengthAdjust="spacingAndGlyphs" textLength="206" x="843.75" y="389.2344">Registrar paciente manualmente</text><polygon fill="#F4F8F7" points="878.75,248.1582,1014.75,248.1582,1026.75,260.1582,1014.75,272.1582,878.75,272.1582,866.75,260.1582,878.75,248.1582" style="stroke: #7A8C88; stroke-width: 1.5;"/><text fill="#000000" font-family="Helvetica" font-size="12" lengthAdjust="spacingAndGlyphs" textLength="17" x="950.75" y="283.2969">No</text><text fill="#000000" font-family="Helvetica" font-size="12" lengthAdjust="spacingAndGlyphs" textLength="136" x="878.75" y="264.3125">¿Paciente registrado?</text><text fill="#000000" font-family="Helvetica" font-size="12" lengthAdjust="spacingAndGlyphs" textLength="11" x="1026.75" y="257.3281">Sí</text><polygon fill="#F4F8F7" points="946.75,424.0488,958.75,436.0488,946.75,448.0488,934.75,436.0488,946.75,424.0488" style="stroke: #7A8C88; stroke-width: 1.5;"/><rect fill="#FFFFFF" height="33.9688" rx="12.5" ry="12.5" style="stroke: #7A8C88; stroke-width: 1.5;" width="256" x="818.75" y="522.0176"/><text fill="#17302B" font-family="Helvetica" font-size="12" lengthAdjust="spacingAndGlyphs" textLength="236" x="828.75" y="543.1563">Validar cobertura con la aseguradora</text><rect fill="#FFFFFF" height="33.9688" rx="12.5" ry="12.5" style="stroke: #7A8C88; stroke-width: 1.5;" width="268" x="812.75" y="575.9863"/><text fill="#17302B" font-family="Helvetica" font-size="12" lengthAdjust="spacingAndGlyphs" textLength="248" x="822.75" y="597.125">Consultar agenda de médicos por sede</text><polygon fill="#F4F8F7" points="870.75,629.9551,1022.75,629.9551,1034.75,641.9551,1022.75,653.9551,870.75,653.9551,858.75,641.9551,870.75,629.9551" style="stroke: #7A8C88; stroke-width: 1.5;"/><text fill="#000000" font-family="Helvetica" font-size="12" lengthAdjust="spacingAndGlyphs" textLength="152" x="870.75" y="646.1094">¿Hay cupos disponibles?</text><text fill="#000000" font-family="Helvetica" font-size="12" lengthAdjust="spacingAndGlyphs" textLength="17" x="841.75" y="639.125">No</text><text fill="#000000" font-family="Helvetica" font-size="12" lengthAdjust="spacingAndGlyphs" textLength="11" x="1034.75" y="639.125">Sí</text><rect fill="#FFFFFF" height="33.9688" rx="12.5" ry="12.5" style="stroke: #7A8C88; stroke-width: 1.5;" width="166" x="735" y="673.9551"/><text fill="#17302B" font-family="Helvetica" font-size="12" lengthAdjust="spacingAndGlyphs" textLength="146" x="745" y="695.0938">Informar falta de cupos</text><rect fill="#FFFFFF" height="33.9688" rx="12.5" ry="12.5" style="stroke: #7A8C88; stroke-width: 1.5;" width="224" x="963.5" y="673.9551"/><text fill="#17302B" font-family="Helvetica" font-size="12" lengthAdjust="spacingAndGlyphs" textLength="204" x="973.5" y="695.0938">Ofrecer horarios de forma verbal</text><path d="M1198.5,781.8926 L1198.5,803.8457 L1178.5,807.8457 L1198.5,811.8457 L1198.5,833.7988 A0,0 0 0 0 1198.5,833.7988 L1505.5,833.7988 A0,0 0 0 0 1505.5,833.7988 L1505.5,791.8926 L1495.5,781.8926 L1198.5,781.8926 A0,0 0 0 0 1198.5,781.8926 " fill="#FDECEA" style="stroke: #B4413C; stroke-width: 1.0;"/><path d="M1495.5,781.8926 L1495.5,791.8926 L1505.5,791.8926 L1495.5,781.8926 " fill="#FDECEA" style="stroke: #B4413C; stroke-width: 1.0;"/><text fill="#5A1F1C" font-family="Helvetica" font-size="12" font-weight="bold" lengthAdjust="spacingAndGlyphs" textLength="152" x="1204.5" y="798.0313">Problema recurrente:</text><text fill="#5A1F1C" font-family="Helvetica" font-size="12" lengthAdjust="spacingAndGlyphs" textLength="130" x="1360.5" y="798.0313">doble agendamiento</text><text fill="#5A1F1C" font-family="Helvetica" font-size="12" lengthAdjust="spacingAndGlyphs" textLength="269" x="1204.5" y="812">cuando otro operador toma el mismo cupo</text><text fill="#5A1F1C" font-family="Helvetica" font-size="12" lengthAdjust="spacingAndGlyphs" textLength="102" x="1204.5" y="825.9688">al mismo tiempo</text><rect fill="#FFFFFF" height="33.9688" rx="12.5" ry="12.5" style="stroke: #7A8C88; stroke-width: 1.5;" width="206" x="972.5" y="790.8613"/><text fill="#17302B" font-family="Helvetica" font-size="12" lengthAdjust="spacingAndGlyphs" textLength="186" x="982.5" y="812">Registrar la cita en la agenda</text><rect fill="#FFFFFF" height="33.9688" rx="12.5" ry="12.5" style="stroke: #7A8C88; stroke-width: 1.5;" width="309" x="921" y="853.7988"/><text fill="#17302B" font-family="Helvetica" font-size="12" lengthAdjust="spacingAndGlyphs" textLength="289" x="931" y="874.9375">Comunicar fecha, hora y sede de forma verbal</text><line style="stroke: #5A6E69; stroke-width: 1.5;" x1="231.25" x2="231.25" y1="64.2676" y2="84.2676"/><polygon fill="#5A6E69" points="227.25,74.2676,231.25,84.2676,235.25,74.2676,231.25,78.2676" style="stroke: #5A6E69; stroke-width: 1.0;"/><line style="stroke: #5A6E69; stroke-width: 1.5;" x1="102.5" x2="102.5" y1="761.8926" y2="781.8926"/><polygon fill="#5A6E69" points="98.5,771.8926,102.5,781.8926,106.5,771.8926,102.5,775.8926" style="stroke: #5A6E69; stroke-width: 1.0;"/><line style="stroke: #5A6E69; stroke-width: 1.5;" x1="360" x2="360" y1="941.7363" y2="963.7207"/><polygon fill="#5A6E69" points="356,953.7207,360,963.7207,364,953.7207,360,957.7207" style="stroke: #5A6E69; stroke-width: 1.0;"/><line style="stroke: #5A6E69; stroke-width: 1.5;" x1="946.75" x2="946.75" y1="174.1895" y2="194.1895"/><polygon fill="#5A6E69" points="942.75,184.1895,946.75,194.1895,950.75,184.1895,946.75,188.1895" style="stroke: #5A6E69; stroke-width: 1.0;"/><line style="stroke: #5A6E69; stroke-width: 1.5;" x1="1026.75" x2="1317.75" y1="260.1582" y2="260.1582"/><polygon fill="#5A6E69" points="1313.75,340.5957,1317.75,350.5957,1321.75,340.5957,1317.75,344.5957" style="stroke: #5A6E69; stroke-width: 1.5;"/><line style="stroke: #5A6E69; stroke-width: 1.5;" x1="1317.75" x2="1317.75" y1="260.1582" y2="436.0488"/><line style="stroke: #5A6E69; stroke-width: 1.5;" x1="1317.75" x2="958.75" y1="436.0488" y2="436.0488"/><polygon fill="#5A6E69" points="968.75,432.0488,958.75,436.0488,968.75,440.0488,964.75,436.0488" style="stroke: #5A6E69; stroke-width: 1.0;"/><line style="stroke: #5A6E69; stroke-width: 1.5;" x1="946.75" x2="946.75" y1="402.0645" y2="424.0488"/><polygon fill="#5A6E69" points="942.75,414.0488,946.75,424.0488,950.75,414.0488,946.75,418.0488" style="stroke: #5A6E69; stroke-width: 1.0;"/><line style="stroke: #5A6E69; stroke-width: 1.5;" x1="946.75" x2="946.75" y1="228.1582" y2="248.1582"/><polygon fill="#5A6E69" points="942.75,238.1582,946.75,248.1582,950.75,238.1582,946.75,242.1582" style="stroke: #5A6E69; stroke-width: 1.0;"/><line style="stroke: #5A6E69; stroke-width: 1.5;" x1="946.75" x2="946.75" y1="555.9863" y2="575.9863"/><polygon fill="#5A6E69" points="942.75,565.9863,946.75,575.9863,950.75,565.9863,946.75,569.9863" style="stroke: #5A6E69; stroke-width: 1.0;"/><line style="stroke: #5A6E69; stroke-width: 1.5;" x1="1075.5" x2="1075.5" y1="824.8301" y2="853.7988"/><polygon fill="#5A6E69" points="1071.5,843.7988,1075.5,853.7988,1079.5,843.7988,1075.5,847.7988" style="stroke: #5A6E69; stroke-width: 1.0;"/><line style="stroke: #5A6E69; stroke-width: 1.5;" x1="858.75" x2="818" y1="641.9551" y2="641.9551"/><line style="stroke: #5A6E69; stroke-width: 1.5;" x1="818" x2="818" y1="641.9551" y2="673.9551"/><polygon fill="#5A6E69" points="814,663.9551,818,673.9551,822,663.9551,818,667.9551" style="stroke: #5A6E69; stroke-width: 1.0;"/><line style="stroke: #5A6E69; stroke-width: 1.5;" x1="1034.75" x2="1075.5" y1="641.9551" y2="641.9551"/><line style="stroke: #5A6E69; stroke-width: 1.5;" x1="1075.5" x2="1075.5" y1="641.9551" y2="673.9551"/><polygon fill="#5A6E69" points="1071.5,663.9551,1075.5,673.9551,1079.5,663.9551,1075.5,667.9551" style="stroke: #5A6E69; stroke-width: 1.0;"/><line style="stroke: #5A6E69; stroke-width: 1.5;" x1="946.75" x2="946.75" y1="609.9551" y2="629.9551"/><polygon fill="#5A6E69" points="942.75,619.9551,946.75,629.9551,950.75,619.9551,946.75,623.9551" style="stroke: #5A6E69; stroke-width: 1.0;"/><line style="stroke: #5A6E69; stroke-width: 1.5; stroke-dasharray: 7.0,7.0;" x1="231.25" x2="231.25" y1="118.2363" y2="125.2207"/><line style="stroke: #5A6E69; stroke-width: 1.5; stroke-dasharray: 7.0,7.0;" x1="231.25" x2="946.75" y1="125.2207" y2="125.2207"/><line style="stroke: #5A6E69; stroke-width: 1.5; stroke-dasharray: 7.0,7.0;" x1="946.75" x2="946.75" y1="125.2207" y2="140.2207"/><polygon fill="#5A6E69" points="942.75,130.2207,946.75,140.2207,950.75,130.2207,946.75,134.2207" style="stroke: #5A6E69; stroke-width: 1.0;"/><line style="stroke: #5A6E69; stroke-width: 1.5; stroke-dasharray: 7.0,7.0;" x1="231.25" x2="231.25" y1="331.1113" y2="349.6035"/><line style="stroke: #5A6E69; stroke-width: 1.5; stroke-dasharray: 7.0,7.0;" x1="231.25" x2="946.75" y1="349.6035" y2="349.6035"/><line style="stroke: #5A6E69; stroke-width: 1.5; stroke-dasharray: 7.0,7.0;" x1="946.75" x2="946.75" y1="349.6035" y2="368.0957"/><polygon fill="#5A6E69" points="942.75,358.0957,946.75,368.0957,950.75,358.0957,946.75,362.0957" style="stroke: #5A6E69; stroke-width: 1.0;"/><line style="stroke: #5A6E69; stroke-width: 1.5; stroke-dasharray: 7.0,7.0;" x1="946.75" x2="946.75" y1="272.1582" y2="284.6504"/><line style="stroke: #5A6E69; stroke-width: 1.5; stroke-dasharray: 7.0,7.0;" x1="946.75" x2="231.25" y1="284.6504" y2="284.6504"/><line style="stroke: #5A6E69; stroke-width: 1.5; stroke-dasharray: 7.0,7.0;" x1="231.25" x2="231.25" y1="284.6504" y2="297.1426"/><polygon fill="#5A6E69" points="227.25,287.1426,231.25,297.1426,235.25,287.1426,231.25,291.1426" style="stroke: #5A6E69; stroke-width: 1.0;"/><line style="stroke: #5A6E69; stroke-width: 1.5; stroke-dasharray: 7.0,7.0;" x1="946.75" x2="946.75" y1="448.0488" y2="453.0488"/><line style="stroke: #5A6E69; stroke-width: 1.5; stroke-dasharray: 7.0,7.0;" x1="946.75" x2="231.25" y1="453.0488" y2="453.0488"/><line style="stroke: #5A6E69; stroke-width: 1.5; stroke-dasharray: 7.0,7.0;" x1="231.25" x2="231.25" y1="453.0488" y2="468.0488"/><polygon fill="#5A6E69" points="227.25,458.0488,231.25,468.0488,235.25,458.0488,231.25,462.0488" style="stroke: #5A6E69; stroke-width: 1.0;"/><line style="stroke: #5A6E69; stroke-width: 1.5; stroke-dasharray: 7.0,7.0;" x1="231.25" x2="231.25" y1="502.0176" y2="507.0176"/><line style="stroke: #5A6E69; stroke-width: 1.5; stroke-dasharray: 7.0,7.0;" x1="231.25" x2="946.75" y1="507.0176" y2="507.0176"/><line style="stroke: #5A6E69; stroke-width: 1.5; stroke-dasharray: 7.0,7.0;" x1="946.75" x2="946.75" y1="507.0176" y2="522.0176"/><polygon fill="#5A6E69" points="942.75,512.0176,946.75,522.0176,950.75,512.0176,946.75,516.0176" style="stroke: #5A6E69; stroke-width: 1.0;"/><line style="stroke: #5A6E69; stroke-width: 1.5; stroke-dasharray: 7.0,7.0;" x1="818" x2="818" y1="707.9238" y2="712.9238"/><line style="stroke: #5A6E69; stroke-width: 1.5; stroke-dasharray: 7.0,7.0;" x1="818" x2="102.5" y1="712.9238" y2="712.9238"/><line style="stroke: #5A6E69; stroke-width: 1.5; stroke-dasharray: 7.0,7.0;" x1="102.5" x2="102.5" y1="712.9238" y2="727.9238"/><polygon fill="#5A6E69" points="98.5,717.9238,102.5,727.9238,106.5,717.9238,102.5,721.9238" style="stroke: #5A6E69; stroke-width: 1.0;"/><line style="stroke: #5A6E69; stroke-width: 1.5; stroke-dasharray: 7.0,7.0;" x1="1075.5" x2="1075.5" y1="707.9238" y2="712.9238"/><line style="stroke: #5A6E69; stroke-width: 1.5; stroke-dasharray: 7.0,7.0;" x1="1075.5" x2="360" y1="712.9238" y2="712.9238"/><line style="stroke: #5A6E69; stroke-width: 1.5; stroke-dasharray: 7.0,7.0;" x1="360" x2="360" y1="712.9238" y2="727.9238"/><polygon fill="#5A6E69" points="356,717.9238,360,727.9238,364,717.9238,360,721.9238" style="stroke: #5A6E69; stroke-width: 1.0;"/><line style="stroke: #5A6E69; stroke-width: 1.5; stroke-dasharray: 7.0,7.0;" x1="360" x2="360" y1="761.8926" y2="768.877"/><line style="stroke: #5A6E69; stroke-width: 1.5; stroke-dasharray: 7.0,7.0;" x1="360" x2="1075.5" y1="768.877" y2="768.877"/><line style="stroke: #5A6E69; stroke-width: 1.5; stroke-dasharray: 7.0,7.0;" x1="1075.5" x2="1075.5" y1="768.877" y2="790.8613"/><polygon fill="#5A6E69" points="1071.5,780.8613,1075.5,790.8613,1079.5,780.8613,1075.5,784.8613" style="stroke: #5A6E69; stroke-width: 1.0;"/><line style="stroke: #5A6E69; stroke-width: 1.5; stroke-dasharray: 7.0,7.0;" x1="1075.5" x2="1075.5" y1="887.7676" y2="892.7676"/><line style="stroke: #5A6E69; stroke-width: 1.5; stroke-dasharray: 7.0,7.0;" x1="1075.5" x2="360" y1="892.7676" y2="892.7676"/><line style="stroke: #5A6E69; stroke-width: 1.5; stroke-dasharray: 7.0,7.0;" x1="360" x2="360" y1="892.7676" y2="907.7676"/><polygon fill="#5A6E69" points="356,897.7676,360,907.7676,364,897.7676,360,901.7676" style="stroke: #5A6E69; stroke-width: 1.0;"/><text fill="#17302B" font-family="Helvetica" font-size="12" font-weight="bold" lengthAdjust="spacingAndGlyphs" textLength="62" x="341.5" y="36.4375">Paciente</text><text fill="#17302B" font-family="Helvetica" font-size="12" font-weight="bold" lengthAdjust="spacingAndGlyphs" textLength="279" x="980.75" y="36.4375">Personal de Admisión / Central de Citas</text><line style="stroke: #A9C4BD; stroke-width: 2.0;" x1="10" x2="10" y1="25.2988" y2="1001.7207"/><line style="stroke: #A9C4BD; stroke-width: 2.0;" x1="730" x2="730" y1="25.2988" y2="1001.7207"/><line style="stroke: #A9C4BD; stroke-width: 2.0;" x1="1515.5" x2="1515.5" y1="25.2988" y2="1001.7207"/><!--MD5=[47595e38c96d42238c79791c57627dc6]
@startuml
title 01 - Proceso actual (AS-IS) - Reserva de cita con atención personal

skinparam shadowing false
skinparam roundCorner 10
skinparam defaultFontName "Helvetica"
skinparam defaultFontSize 12
skinparam ArrowColor #5A6E69
skinparam SwimlaneBorderColor #A9C4BD
skinparam SwimlaneTitleFontColor #17302B
skinparam SwimlaneTitleFontStyle bold
skinparam activity {
  BackgroundColor #FFFFFF
  BorderColor #7A8C88
  FontColor #17302B
  DiamondBackgroundColor #F4F8F7
  DiamondBorderColor #7A8C88
  StartColor #17302B
  EndColor #17302B
}
skinparam note {
  BackgroundColor #FDECEA
  BorderColor #B4413C
  FontColor #5A1F1C
}

|Paciente|
start
:Acude a ventanilla o llama a la central de citas;
note right
  <b>Problema:</b> depende del horario
  de atención y genera colas
end note

|Personal de Admisión / Central de Citas|
-[dashed]->
:Solicitar número de documento;
:Buscar al paciente en el sistema interno;

if (¿Paciente registrado?) then (No)
  |Paciente|
  -[dashed]->
  :Dictar datos personales;
  |Personal de Admisión / Central de Citas|
  -[dashed]->
  :Registrar paciente manualmente;
  note right
    <b>Problema:</b> errores de digitación
    y registros duplicados
  end note
else (Sí)
endif

|Paciente|
-[dashed]->
:Indicar aseguradora y especialidad;

|Personal de Admisión / Central de Citas|
-[dashed]->
:Validar cobertura con la aseguradora;
:Consultar agenda de médicos por sede;

if (¿Hay cupos disponibles?) then (No)
  :Informar falta de cupos;
  |Paciente|
  -[dashed]->
  :Volver a llamar otro día;
  stop
else (Sí)
  |Personal de Admisión / Central de Citas|
  :Ofrecer horarios de forma verbal;
  |Paciente|
  -[dashed]->
  :Elegir horario;
  |Personal de Admisión / Central de Citas|
  -[dashed]->
  :Registrar la cita en la agenda;
  note right
    <b>Problema recurrente:</b> doble agendamiento
    cuando otro operador toma el mismo cupo
    al mismo tiempo
  end note
  :Comunicar fecha, hora y sede de forma verbal;
  |Paciente|
  -[dashed]->
  :Anotar los datos de la cita;
  note right
    <b>Problema:</b> no recibe confirmación
    ni recordatorio escrito → ausentismo
  end note
  stop
endif

@enduml

PlantUML version 1.2020.02(Sun Mar 01 10:22:07 UTC 2020)
(GPL source distribution)
Java Runtime: OpenJDK Runtime Environment
JVM: OpenJDK 64-Bit Server VM
Java Version: 17.0.20.1+1
Operating System: Linux
Default Encoding: UTF-8
Language: en
Country: null
--></g></svg>