<?xml version="1.0" encoding="UTF-8" standalone="no"?><svg xmlns="http://www.w3.org/2000/svg" xmlns:xlink="http://www.w3.org/1999/xlink" contentScriptType="application/ecmascript" contentStyleType="text/css" height="1165px" preserveAspectRatio="none" style="width:1194px;height:1165px;" version="1.1" viewBox="0 0 1194 1165" width="1194px" zoomAndPan="magnify"><defs/><g><text fill="#000000" font-family="Helvetica" font-size="12" lengthAdjust="spacingAndGlyphs" textLength="421" x="385.75" y="21.1387">01 - Proceso actual (AS-IS) - Reserva de cita con atención personal</text><ellipse cx="176.5" cy="54.2676" fill="#17302B" rx="10" ry="10" style="stroke: none; stroke-width: 1.0;"/><path d="M353,82.2832 L353,97.252 L333,101.252 L353,105.252 L353,120.2207 A0,0 0 0 0 353,120.2207 L578,120.2207 A0,0 0 0 0 578,120.2207 L578,92.2832 L568,82.2832 L353,82.2832 A0,0 0 0 0 353,82.2832 " fill="#FDECEA" style="stroke: #B4413C; stroke-width: 1.0;"/><path d="M568,82.2832 L568,92.2832 L578,92.2832 L568,82.2832 " fill="#FDECEA" style="stroke: #B4413C; stroke-width: 1.0;"/><text fill="#5A1F1C" font-family="Helvetica" font-size="12" font-weight="bold" lengthAdjust="spacingAndGlyphs" textLength="72" x="359" y="98.4219">Problema:</text><text fill="#5A1F1C" font-family="Helvetica" font-size="12" lengthAdjust="spacingAndGlyphs" textLength="128" x="435" y="98.4219">depende del horario</text><text fill="#5A1F1C" font-family="Helvetica" font-size="12" lengthAdjust="spacingAndGlyphs" textLength="171" x="359" y="112.3906">de atención y genera colas</text><rect fill="#FFFFFF" height="33.9688" rx="12.5" ry="12.5" style="stroke: #7A8C88; stroke-width: 1.5;" width="313" x="20" y="84.2676"/><text fill="#17302B" font-family="Helvetica" font-size="12" lengthAdjust="spacingAndGlyphs" textLength="293" x="30" y="105.4063">Acude a ventanilla o llama a la central de citas</text><rect fill="#FFFFFF" height="33.9688" rx="12.5" ry="12.5" style="stroke: #7A8C88; stroke-width: 1.5;" width="171" x="91" y="297.1426"/><text fill="#17302B" font-family="Helvetica" font-size="12" lengthAdjust="spacingAndGlyphs" textLength="151" x="101" y="318.2813">Dictar datos personales</text><rect fill="#FFFFFF" height="33.9688" rx="12.5" ry="12.5" style="stroke: #7A8C88; stroke-width: 1.5;" width="240" x="56.5" y="468.0488"/><text fill="#17302B" font-family="Helvetica" font-size="12" lengthAdjust="spacingAndGlyphs" textLength="220" x="66.5" y="489.1875">Indicar aseguradora y especialidad</text><rect fill="#FFFFFF" height="33.9688" rx="12.5" ry="12.5" style="stroke: #7A8C88; stroke-width: 1.5;" width="165" x="94" y="732.9082"/><text fill="#17302B" font-family="Helvetica" font-size="12" lengthAdjust="spacingAndGlyphs" textLength="145" x="104" y="754.0469">Volver a llamar otro día</text><ellipse cx="176.5" cy="797.877" fill="#FFFFFF" rx="11" ry="11" style="stroke: #17302B; stroke-width: 1.0;"/><ellipse cx="176.5" cy="797.877" fill="#17302B" rx="6" ry="6" style="stroke: #8B9795; stroke-width: 1.0;"/><rect fill="#FFFFFF" height="33.9688" rx="12.5" ry="12.5" style="stroke: #7A8C88; stroke-width: 1.5;" width="104" x="124.5" y="904.8457"/><text fill="#17302B" font-family="Helvetica" font-size="12" lengthAdjust="spacingAndGlyphs" textLength="84" x="134.5" y="925.9844">Elegir horario</text><path d="M289.5,1073.7363 L289.5,1088.7051 L269.5,1092.7051 L289.5,1096.7051 L289.5,1111.6738 A0,0 0 0 0 289.5,1111.6738 L541.5,1111.6738 A0,0 0 0 0 541.5,1111.6738 L541.5,1083.7363 L531.5,1073.7363 L289.5,1073.7363 A0,0 0 0 0 289.5,1073.7363 " fill="#FDECEA" style="stroke: #B4413C; stroke-width: 1.0;"/><path d="M531.5,1073.7363 L531.5,1083.7363 L541.5,1083.7363 L531.5,1073.7363 " fill="#FDECEA" style="stroke: #B4413C; stroke-width: 1.0;"/><text fill="#5A1F1C" font-family="Helvetica" font-size="12" font-weight="bold" lengthAdjust="spacingAndGlyphs" textLength="72" x="295.5" y="1089.875">Problema:</text><text fill="#5A1F1C" font-family="Helvetica" font-size="12" lengthAdjust="spacingAndGlyphs" textLength="143" x="371.5" y="1089.875">no recibe confirmación</text><text fill="#5A1F1C" font-family="Helvetica" font-size="12" lengthAdjust="spacingAndGlyphs" textLength="231" x="295.5" y="1103.8438">ni recordatorio escrito → ausentismo</text><rect fill="#FFFFFF" height="33.9688" rx="12.5" ry="12.5" style="stroke: #7A8C88; stroke-width: 1.5;" width="186" x="83.5" y="1075.7207"/><text fill="#17302B" font-family="Helvetica" font-size="12" lengthAdjust="spacingAndGlyphs" textLength="166" x="93.5" y="1096.8594">Anotar los datos de la cita</text><ellipse cx="176.5" cy="1142.6738" fill="#FFFFFF" rx="11" ry="11" style="stroke: #17302B; stroke-width: 1.0;"/><ellipse cx="176.5" cy="1142.6738" fill="#17302B" rx="6" ry="6" style="stroke: #8B9795; stroke-width: 1.0;"/><rect fill="#FFFFFF" height="33.9688" rx="12.5" ry="12.5" style="stroke: #7A8C88; stroke-width: 1.5;" width="217" x="634" y="140.2207"/><text fill="#17302B" font-family="Helvetica" font-size="12" lengthAdjust="spacingAndGlyphs" textLength="197" x="644" y="161.3594">Solicitar número de documento</text><rect fill="#FFFFFF" height="33.9688" rx="12.5" ry="12.5" style="stroke: #7A8C88; stroke-width: 1.5;" width="274" x="605.5" y="194.1895"/><text fill="#17302B" font-family="Helvetica" font-size="12" lengthAdjust="spacingAndGlyphs" textLength="254" x="615.5" y="215.3281">Buscar al paciente en el sistema interno</text><path d="M875.5,366.1113 L875.5,381.0801 L855.5,385.0801 L875.5,389.0801 L875.5,404.0488 A0,0 0 0 0 875.5,404.0488 L1103.5,404.0488 A0,0 0 0 0 1103.5,404.0488 L1103.5,376.1113 L1093.5,366.1113 L875.5,366.1113 A0,0 0 0 0 875.5,366.1113 " fill="#FDECEA" style="stroke: #B4413C; stroke-width: 1.0;"/><path d="M1093.5,366.1113 L1093.5,376.1113 L1103.5,376.1113 L1093.5,366.1113 " fill="#FDECEA" style="stroke: #B4413C; stroke-width: 1.0;"/><text fill="#5A1F1C" font-family="Helvetica" font-size="12" font-weight="bold" lengthAdjust="spacingAndGlyphs" textLength="72" x="881.5" y="382.25">Problema:</text><text fill="#5A1F1C" font-family="Helvetica" font-size="12" lengthAdjust="spacingAndGlyphs" textLength="131" x="957.5" y="382.25">errores de digitación</text><text fill="#5A1F1C" font-family="Helvetica" font-size="12" lengthAdjust="spacingAndGlyphs" textLength="138" x="881.5" y="396.2188">y registros duplicados</text><rect fill="#FFFFFF" height="33.9688" rx="12.5" ry="12.5" style="stroke: #7A8C88; stroke-width: 1.5;" width="226" x="629.5" y="368.0957"/><text fill="#17302B" font-family="Helvetica" font-size="12" lengthAdjust="spacingAndGlyphs" textLength="206" x="639.5" y="389.2344">Registrar paciente manualmente</text><polygon fill="#F4F8F7" points="674.5,248.1582,810.5,248.1582,822.5,260.1582,810.5,272.1582,674.5,272.1582,662.5,260.1582,674.5,248.1582" style="stroke: #7A8C88; stroke-width: 1.5;"/><text fill="#000000" font-family="Helvetica" font-size="12" lengthAdjust="spacingAndGlyphs" textLength="17" x="746.5" y="283.2969">No</text><text fill="#000000" font-family="Helvetica" font-size="12" lengthAdjust="spacingAndGlyphs" textLength="136" x="674.5" y="264.3125">¿Paciente registrado?</text><polygon fill="#F4F8F7" points="742.5,424.0488,754.5,436.0488,742.5,448.0488,730.5,436.0488,742.5,424.0488" style="stroke: #7A8C88; stroke-width: 1.5;"/><rect fill="#FFFFFF" height="33.9688" rx="12.5" ry="12.5" style="stroke: #7A8C88; stroke-width: 1.5;" width="256" x="614.5" y="522.0176"/><text fill="#17302B" font-family="Helvetica" font-size="12" lengthAdjust="spacingAndGlyphs" textLength="236" x="624.5" y="543.1563">Validar cobertura con la aseguradora</text><rect fill="#FFFFFF" height="33.9688" rx="12.5" ry="12.5" style="stroke: #7A8C88; stroke-width: 1.5;" width="268" x="608.5" y="575.9863"/><text fill="#17302B" font-family="Helvetica" font-size="12" lengthAdjust="spacingAndGlyphs" textLength="248" x="618.5" y="597.125">Consultar agenda de médicos por sede</text><rect fill="#FFFFFF" height="33.9688" rx="12.5" ry="12.5" style="stroke: #7A8C88; stroke-width: 1.5;" width="166" x="659.5" y="678.9395"/><text fill="#17302B" font-family="Helvetica" font-size="12" lengthAdjust="spacingAndGlyphs" textLength="146" x="669.5" y="700.0781">Informar falta de cupos</text><polygon fill="#F4F8F7" points="666.5,629.9551,818.5,629.9551,830.5,641.9551,818.5,653.9551,666.5,653.9551,654.5,641.9551,666.5,629.9551" style="stroke: #7A8C88; stroke-width: 1.5;"/><text fill="#000000" font-family="Helvetica" font-size="12" lengthAdjust="spacingAndGlyphs" textLength="17" x="746.5" y="665.0938">No</text><text fill="#000000" font-family="Helvetica" font-size="12" lengthAdjust="spacingAndGlyphs" textLength="152" x="666.5" y="646.1094">¿Hay cupos disponibles?</text><text fill="#000000" font-family="Helvetica" font-size="12" lengthAdjust="spacingAndGlyphs" textLength="11" x="830.5" y="639.125">Sí</text><rect fill="#FFFFFF" height="33.9688" rx="12.5" ry="12.5" style="stroke: #7A8C88; stroke-width: 1.5;" width="224" x="630.5" y="850.877"/><text fill="#17302B" font-family="Helvetica" font-size="12" lengthAdjust="spacingAndGlyphs" textLength="204" x="640.5" y="872.0156">Ofrecer horarios de forma verbal</text><path d="M865.5,949.8457 L865.5,971.7988 L845.5,975.7988 L865.5,979.7988 L865.5,1001.752 A0,0 0 0 0 865.5,1001.752 L1172.5,1001.752 A0,0 0 0 0 1172.5,1001.752 L1172.5,959.8457 L1162.5,949.8457 L865.5,949.8457 A0,0 0 0 0 865.5,949.8457 " fill="#FDECEA" style="stroke: #B4413C; stroke-width: 1.0;"/><path d="M1162.5,949.8457 L1162.5,959.8457 L1172.5,959.8457 L1162.5,949.8457 " fill="#FDECEA" style="stroke: #B4413C; stroke-width: 1.0;"/><text fill="#5A1F1C" font-family="Helvetica" font-size="12" font-weight="bold" lengthAdjust="spacingAndGlyphs" textLength="152" x="871.5" y="965.9844">Problema recurrente:</text><text fill="#5A1F1C" font-family="Helvetica" font-size="12" lengthAdjust="spacingAndGlyphs" textLength="130" x="1027.5" y="965.9844">doble agendamiento</text><text fill="#5A1F1C" font-family="Helvetica" font-size="12" lengthAdjust="spacingAndGlyphs" textLength="269" x="871.5" y="979.9531">cuando otro operador toma el mismo cupo</text><text fill="#5A1F1C" font-family="Helvetica" font-size="12" lengthAdjust="spacingAndGlyphs" textLength="102" x="871.5" y="993.9219">al mismo tiempo</text><rect fill="#FFFFFF" height="33.9688" rx="12.5" ry="12.5" style="stroke: #7A8C88; stroke-width: 1.5;" width="206" x="639.5" y="958.8145"/><text fill="#17302B" font-family="Helvetica" font-size="12" lengthAdjust="spacingAndGlyphs" textLength="186" x="649.5" y="979.9531">Registrar la cita en la agenda</text><rect fill="#FFFFFF" height="33.9688" rx="12.5" ry="12.5" style="stroke: #7A8C88; stroke-width: 1.5;" width="309" x="588" y="1021.752"/><text fill="#17302B" font-family="Helvetica" font-size="12" lengthAdjust="spacingAndGlyphs" textLength="289" x="598" y="1042.8906">Comunicar fecha, hora y sede de forma verbal</text><line style="stroke: #5A6E69; stroke-width: 1.5;" x1="176.5" x2="176.5" y1="64.2676" y2="84.2676"/><polygon fill="#5A6E69" points="172.5,74.2676,176.5,84.2676,180.5,74.2676,176.5,78.2676" style="stroke: #5A6E69; stroke-width: 1.0;"/><line style="stroke: #5A6E69; stroke-width: 1.5;" x1="176.5" x2="176.5" y1="766.877" y2="786.877"/><polygon fill="#5A6E69" points="172.5,776.877,176.5,786.877,180.5,776.877,176.5,780.877" style="stroke: #5A6E69; stroke-width: 1.0;"/><line style="stroke: #5A6E69; stroke-width: 1.5;" x1="176.5" x2="176.5" y1="1109.6895" y2="1131.6738"/><polygon fill="#5A6E69" points="172.5,1121.6738,176.5,1131.6738,180.5,1121.6738,176.5,1125.6738" style="stroke: #5A6E69; stroke-width: 1.0;"/><line style="stroke: #5A6E69; stroke-width: 1.5;" x1="742.5" x2="742.5" y1="174.1895" y2="194.1895"/><polygon fill="#5A6E69" points="738.5,184.1895,742.5,194.1895,746.5,184.1895,742.5,188.1895" style="stroke: #5A6E69; stroke-width: 1.0;"/><line style="stroke: #5A6E69; stroke-width: 1.5;" x1="822.5" x2="1113.5" y1="260.1582" y2="260.1582"/><polygon fill="#5A6E69" points="1109.5,340.5957,1113.5,350.5957,1117.5,340.5957,1113.5,344.5957" style="stroke: #5A6E69; stroke-width: 1.5;"/><line style="stroke: #5A6E69; stroke-width: 1.5;" x1="1113.5" x2="1113.5" y1="260.1582" y2="436.0488"/><line style="stroke: #5A6E69; stroke-width: 1.5;" x1="1113.5" x2="754.5" y1="436.0488" y2="436.0488"/><polygon fill="#5A6E69" points="764.5,432.0488,754.5,436.0488,764.5,440.0488,760.5,436.0488" style="stroke: #5A6E69; stroke-width: 1.0;"/><line style="stroke: #5A6E69; stroke-width: 1.5;" x1="742.5" x2="742.5" y1="402.0645" y2="424.0488"/><polygon fill="#5A6E69" points="738.5,414.0488,742.5,424.0488,746.5,414.0488,742.5,418.0488" style="stroke: #5A6E69; stroke-width: 1.0;"/><line style="stroke: #5A6E69; stroke-width: 1.5;" x1="742.5" x2="742.5" y1="228.1582" y2="248.1582"/><polygon fill="#5A6E69" points="738.5,238.1582,742.5,248.1582,746.5,238.1582,742.5,242.1582" style="stroke: #5A6E69; stroke-width: 1.0;"/><line style="stroke: #5A6E69; stroke-width: 1.5;" x1="742.5" x2="742.5" y1="555.9863" y2="575.9863"/><polygon fill="#5A6E69" points="738.5,565.9863,742.5,575.9863,746.5,565.9863,742.5,569.9863" style="stroke: #5A6E69; stroke-width: 1.0;"/><line style="stroke: #5A6E69; stroke-width: 1.5;" x1="742.5" x2="742.5" y1="653.9551" y2="678.9395"/><polygon fill="#5A6E69" points="738.5,668.9395,742.5,678.9395,746.5,668.9395,742.5,672.9395" style="stroke: #5A6E69; stroke-width: 1.0;"/><line style="stroke: #5A6E69; stroke-width: 1.5;" x1="830.5" x2="842.5" y1="641.9551" y2="641.9551"/><polygon fill="#5A6E69" points="838.5,730.9082,842.5,740.9082,846.5,730.9082,842.5,734.9082" style="stroke: #5A6E69; stroke-width: 1.5;"/><line style="stroke: #5A6E69; stroke-width: 1.5;" x1="842.5" x2="842.5" y1="641.9551" y2="830.877"/><line style="stroke: #5A6E69; stroke-width: 1.5;" x1="842.5" x2="742.5" y1="830.877" y2="830.877"/><line style="stroke: #5A6E69; stroke-width: 1.5;" x1="742.5" x2="742.5" y1="830.877" y2="850.877"/><polygon fill="#5A6E69" points="738.5,840.877,742.5,850.877,746.5,840.877,742.5,844.877" style="stroke: #5A6E69; stroke-width: 1.0;"/><line style="stroke: #5A6E69; stroke-width: 1.5;" x1="742.5" x2="742.5" y1="609.9551" y2="629.9551"/><polygon fill="#5A6E69" points="738.5,619.9551,742.5,629.9551,746.5,619.9551,742.5,623.9551" style="stroke: #5A6E69; stroke-width: 1.0;"/><line style="stroke: #5A6E69; stroke-width: 1.5;" x1="742.5" x2="742.5" y1="992.7832" y2="1021.752"/><polygon fill="#5A6E69" points="738.5,1011.752,742.5,1021.752,746.5,1011.752,742.5,1015.752" style="stroke: #5A6E69; stroke-width: 1.0;"/><line style="stroke: #5A6E69; stroke-width: 1.5;" x1="176.5" x2="176.5" y1="118.2363" y2="125.2207"/><line style="stroke: #5A6E69; stroke-width: 1.5;" x1="176.5" x2="742.5" y1="125.2207" y2="125.2207"/><line style="stroke: #5A6E69; stroke-width: 1.5;" x1="742.5" x2="742.5" y1="125.2207" y2="140.2207"/><polygon fill="#5A6E69" points="738.5,130.2207,742.5,140.2207,746.5,130.2207,742.5,134.2207" style="stroke: #5A6E69; stroke-width: 1.0;"/><line style="stroke: #5A6E69; stroke-width: 1.5;" x1="176.5" x2="176.5" y1="331.1113" y2="349.6035"/><line style="stroke: #5A6E69; stroke-width: 1.5;" x1="176.5" x2="742.5" y1="349.6035" y2="349.6035"/><line style="stroke: #5A6E69; stroke-width: 1.5;" x1="742.5" x2="742.5" y1="349.6035" y2="368.0957"/><polygon fill="#5A6E69" points="738.5,358.0957,742.5,368.0957,746.5,358.0957,742.5,362.0957" style="stroke: #5A6E69; stroke-width: 1.0;"/><line style="stroke: #5A6E69; stroke-width: 1.5;" x1="742.5" x2="742.5" y1="272.1582" y2="284.6504"/><line style="stroke: #5A6E69; stroke-width: 1.5;" x1="742.5" x2="176.5" y1="284.6504" y2="284.6504"/><line style="stroke: #5A6E69; stroke-width: 1.5;" x1="176.5" x2="176.5" y1="284.6504" y2="297.1426"/><polygon fill="#5A6E69" points="172.5,287.1426,176.5,297.1426,180.5,287.1426,176.5,291.1426" style="stroke: #5A6E69; stroke-width: 1.0;"/><line style="stroke: #5A6E69; stroke-width: 1.5;" x1="742.5" x2="742.5" y1="448.0488" y2="453.0488"/><line style="stroke: #5A6E69; stroke-width: 1.5;" x1="742.5" x2="176.5" y1="453.0488" y2="453.0488"/><line style="stroke: #5A6E69; stroke-width: 1.5;" x1="176.5" x2="176.5" y1="453.0488" y2="468.0488"/><polygon fill="#5A6E69" points="172.5,458.0488,176.5,468.0488,180.5,458.0488,176.5,462.0488" style="stroke: #5A6E69; stroke-width: 1.0;"/><line style="stroke: #5A6E69; stroke-width: 1.5;" x1="176.5" x2="176.5" y1="502.0176" y2="507.0176"/><line style="stroke: #5A6E69; stroke-width: 1.5;" x1="176.5" x2="742.5" y1="507.0176" y2="507.0176"/><line style="stroke: #5A6E69; stroke-width: 1.5;" x1="742.5" x2="742.5" y1="507.0176" y2="522.0176"/><polygon fill="#5A6E69" points="738.5,512.0176,742.5,522.0176,746.5,512.0176,742.5,516.0176" style="stroke: #5A6E69; stroke-width: 1.0;"/><line style="stroke: #5A6E69; stroke-width: 1.5;" x1="742.5" x2="742.5" y1="712.9082" y2="717.9082"/><line style="stroke: #5A6E69; stroke-width: 1.5;" x1="742.5" x2="176.5" y1="717.9082" y2="717.9082"/><line style="stroke: #5A6E69; stroke-width: 1.5;" x1="176.5" x2="176.5" y1="717.9082" y2="732.9082"/><polygon fill="#5A6E69" points="172.5,722.9082,176.5,732.9082,180.5,722.9082,176.5,726.9082" style="stroke: #5A6E69; stroke-width: 1.0;"/><line style="stroke: #5A6E69; stroke-width: 1.5;" x1="742.5" x2="742.5" y1="884.8457" y2="889.8457"/><line style="stroke: #5A6E69; stroke-width: 1.5;" x1="742.5" x2="176.5" y1="889.8457" y2="889.8457"/><line style="stroke: #5A6E69; stroke-width: 1.5;" x1="176.5" x2="176.5" y1="889.8457" y2="904.8457"/><polygon fill="#5A6E69" points="172.5,894.8457,176.5,904.8457,180.5,894.8457,176.5,898.8457" style="stroke: #5A6E69; stroke-width: 1.0;"/><line style="stroke: #5A6E69; stroke-width: 1.5;" x1="176.5" x2="176.5" y1="938.8145" y2="943.8145"/><line style="stroke: #5A6E69; stroke-width: 1.5;" x1="176.5" x2="742.5" y1="943.8145" y2="943.8145"/><line style="stroke: #5A6E69; stroke-width: 1.5;" x1="742.5" x2="742.5" y1="943.8145" y2="958.8145"/><polygon fill="#5A6E69" points="738.5,948.8145,742.5,958.8145,746.5,948.8145,742.5,952.8145" style="stroke: #5A6E69; stroke-width: 1.0;"/><line style="stroke: #5A6E69; stroke-width: 1.5;" x1="742.5" x2="742.5" y1="1055.7207" y2="1060.7207"/><line style="stroke: #5A6E69; stroke-width: 1.5;" x1="742.5" x2="176.5" y1="1060.7207" y2="1060.7207"/><line style="stroke: #5A6E69; stroke-width: 1.5;" x1="176.5" x2="176.5" y1="1060.7207" y2="1075.7207"/><polygon fill="#5A6E69" points="172.5,1065.7207,176.5,1075.7207,180.5,1065.7207,176.5,1069.7207" style="stroke: #5A6E69; stroke-width: 1.0;"/><text fill="#17302B" font-family="Helvetica" font-size="12" font-weight="bold" lengthAdjust="spacingAndGlyphs" textLength="62" x="268" y="36.4375">Paciente</text><text fill="#17302B" font-family="Helvetica" font-size="12" font-weight="bold" lengthAdjust="spacingAndGlyphs" textLength="279" x="740.75" y="36.4375">Personal de Admisión / Central de Citas</text><line style="stroke: #A9C4BD; stroke-width: 2.0;" x1="10" x2="10" y1="25.2988" y2="1153.6738"/><line style="stroke: #A9C4BD; stroke-width: 2.0;" x1="583" x2="583" y1="25.2988" y2="1153.6738"/><line style="stroke: #A9C4BD; stroke-width: 2.0;" x1="1182.5" x2="1182.5" y1="25.2988" y2="1153.6738"/><!--MD5=[39e78372c7365c3d8d604e62ca6608a0]
@startuml
title 01 - Proceso actual (AS-IS) - Reserva de cita con atención personal

skinparam shadowing false
skinparam roundCorner 10
skinparam defaultFontName "Helvetica"
skinparam defaultFontSize 12
skinparam ArrowColor #5A6E69
skinparam SwimlaneBorderColor #A9C4BD
skinparam SwimlaneTitleFontColor #17302B
skinparam SwimlaneTitleFontStyle bold
skinparam activity {
  BackgroundColor #FFFFFF
  BorderColor #7A8C88
  FontColor #17302B
  DiamondBackgroundColor #F4F8F7
  DiamondBorderColor #7A8C88
  StartColor #17302B
  EndColor #17302B
}
skinparam note {
  BackgroundColor #FDECEA
  BorderColor #B4413C
  FontColor #5A1F1C
}

|Paciente|
start
:Acude a ventanilla o llama a la central de citas;
note right
  <b>Problema:</b> depende del horario
  de atención y genera colas
end note

|Personal de Admisión / Central de Citas|
:Solicitar número de documento;
:Buscar al paciente en el sistema interno;

if (¿Paciente registrado?) then (No)
  |Paciente|
  :Dictar datos personales;
  |Personal de Admisión / Central de Citas|
  :Registrar paciente manualmente;
  note right
    <b>Problema:</b> errores de digitación
    y registros duplicados
  end note
endif

|Paciente|
:Indicar aseguradora y especialidad;

|Personal de Admisión / Central de Citas|
:Validar cobertura con la aseguradora;
:Consultar agenda de médicos por sede;

if (¿Hay cupos disponibles?) then (No)
  :Informar falta de cupos;
  |Paciente|
  :Volver a llamar otro día;
  stop
else (Sí)
endif

|Personal de Admisión / Central de Citas|
:Ofrecer horarios de forma verbal;

|Paciente|
:Elegir horario;

|Personal de Admisión / Central de Citas|
:Registrar la cita en la agenda;
note right
  <b>Problema recurrente:</b> doble agendamiento
  cuando otro operador toma el mismo cupo
  al mismo tiempo
end note
:Comunicar fecha, hora y sede de forma verbal;

|Paciente|
:Anotar los datos de la cita;
note right
  <b>Problema:</b> no recibe confirmación
  ni recordatorio escrito → ausentismo
end note
stop

@enduml

PlantUML version 1.2020.02(Sun Mar 01 10:22:07 UTC 2020)
(GPL source distribution)
Java Runtime: OpenJDK Runtime Environment
JVM: OpenJDK 64-Bit Server VM
Java Version: 17.0.20.1+1
Operating System: Linux
Default Encoding: UTF-8
Language: en
Country: null
--></g></svg>