<?xml version="1.0" encoding="UTF-8" standalone="no"?><svg xmlns="http://www.w3.org/2000/svg" xmlns:xlink="http://www.w3.org/1999/xlink" contentScriptType="application/ecmascript" contentStyleType="text/css" height="1123px" preserveAspectRatio="none" style="width:918px;height:1123px;" version="1.1" viewBox="0 0 918 1123" width="918px" zoomAndPan="magnify"><defs/><g><text fill="#000000" font-family="Helvetica" font-size="12" lengthAdjust="spacingAndGlyphs" textLength="309" x="307.5" y="11.1387">02 - Diagrama de Casos de Uso - MediCitas Anglo</text><!--MD5=[8e900d8fcb7e15072159b0bca8d74a98]
cluster MediCitas Anglo--><rect fill="#F4F8F7" height="1075" rx="5" ry="5" style="stroke: #A9C4BD; stroke-width: 1.5;" width="542" x="177" y="37.9688"/><text fill="#17302B" font-family="Helvetica" font-size="12" font-weight="bold" lengthAdjust="spacingAndGlyphs" textLength="114" x="391" y="51.1074">MediCitas Anglo</text><!--MD5=[3c4c53fd9774f7c05cf58a60bbca9c64]
cluster Fase 1 - Autoatención--><path d="M206,77.9688 L356,77.9688 A7.5,7.5 0 0 1 361,82.9688 L368,97.9375 L407,97.9375 A5,5 0 0 1 412,102.9375 L412,636.9688 A5,5 0 0 1 407,641.9688 L206,641.9688 A5,5 0 0 1 201,636.9688 L201,82.9688 A5,5 0 0 1 206,77.9688 " fill="#F4F8F7" style="stroke: #A9C4BD; stroke-width: 1.5;"/><line style="stroke: #A9C4BD; stroke-width: 1.5;" x1="201" x2="368" y1="97.9375" y2="97.9375"/><text fill="#17302B" font-family="Helvetica" font-size="12" font-weight="bold" lengthAdjust="spacingAndGlyphs" textLength="154" x="205" y="91.1074">Fase 1 - Autoatención</text><!--MD5=[6ffe0b922c4f787720de8e8a5b4b215a]
cluster Fase 2 - Gestión Interna--><path d="M218.5,665.9688 L384.5,665.9688 A7.5,7.5 0 0 1 389.5,670.9688 L396.5,685.9375 L394.5,685.9375 A5,5 0 0 1 399.5,690.9375 L399.5,1083.9688 A5,5 0 0 1 394.5,1088.9688 L218.5,1088.9688 A5,5 0 0 1 213.5,1083.9688 L213.5,670.9688 A5,5 0 0 1 218.5,665.9688 " fill="#F4F8F7" style="stroke: #A9C4BD; stroke-width: 1.5;"/><line style="stroke: #A9C4BD; stroke-width: 1.5;" x1="213.5" x2="396.5" y1="685.9375" y2="685.9375"/><text fill="#17302B" font-family="Helvetica" font-size="12" font-weight="bold" lengthAdjust="spacingAndGlyphs" textLength="170" x="217.5" y="679.1074">Fase 2 - Gestión Interna</text><!--MD5=[26e4f2a1034a0ff9125ca55bac4a61d3]
cluster Notificaciones--><path d="M521,258.9688 L617,258.9688 A7.5,7.5 0 0 1 622,263.9688 L629,278.9375 L690,278.9375 A5,5 0 0 1 695,283.9375 L695,404.9688 A5,5 0 0 1 690,409.9688 L521,409.9688 A5,5 0 0 1 516,404.9688 L516,263.9688 A5,5 0 0 1 521,258.9688 " fill="#F4F8F7" style="stroke: #A9C4BD; stroke-width: 1.5;"/><line style="stroke: #A9C4BD; stroke-width: 1.5;" x1="516" x2="629" y1="278.9375" y2="278.9375"/><text fill="#17302B" font-family="Helvetica" font-size="12" font-weight="bold" lengthAdjust="spacingAndGlyphs" textLength="100" x="520" y="272.1074">Notificaciones</text><ellipse cx="306.7018" cy="540.0091" fill="#FFFFFF" rx="70.7018" ry="16.5404" style="stroke: #13917D; stroke-width: 1.5;"/><text fill="#17302B" font-family="Helvetica" font-size="12" lengthAdjust="spacingAndGlyphs" textLength="116" x="248.7018" y="543.4935">Registrar paciente</text><ellipse cx="306.3555" cy="608.9398" fill="#FFFFFF" rx="72.8555" ry="16.9711" style="stroke: #13917D; stroke-width: 1.5;"/><text fill="#17302B" font-family="Helvetica" font-size="12" lengthAdjust="spacingAndGlyphs" textLength="121" x="245.8555" y="612.4242">Identificar paciente</text><ellipse cx="306.7279" cy="127.8143" fill="#FFFFFF" rx="77.2279" ry="17.8456" style="stroke: #13917D; stroke-width: 1.5;"/><text fill="#17302B" font-family="Helvetica" font-size="12" lengthAdjust="spacingAndGlyphs" textLength="131" x="241.2279" y="131.2987">Asociar aseguradora</text><ellipse cx="306.3744" cy="201.7436" fill="#FFFFFF" rx="89.3744" ry="20.2749" style="stroke: #13917D; stroke-width: 1.5;"/><text fill="#17302B" font-family="Helvetica" font-size="12" lengthAdjust="spacingAndGlyphs" textLength="158" x="227.3744" y="205.228">Consultar especialidades</text><ellipse cx="306.7317" cy="277.0151" fill="#FFFFFF" rx="85.7317" ry="19.5463" style="stroke: #13917D; stroke-width: 1.5;"/><text fill="#17302B" font-family="Helvetica" font-size="12" lengthAdjust="spacingAndGlyphs" textLength="150" x="231.7317" y="280.4995">Consultar disponibilidad</text><ellipse cx="306.3566" cy="345.7401" fill="#FFFFFF" rx="56.8566" ry="13.7713" style="stroke: #13917D; stroke-width: 1.5;"/><text fill="#17302B" font-family="Helvetica" font-size="12" lengthAdjust="spacingAndGlyphs" textLength="82" x="265.3566" y="349.2245">Reservar cita</text><ellipse cx="306.7286" cy="410.9145" fill="#FFFFFF" rx="67.7286" ry="15.9457" style="stroke: #13917D; stroke-width: 1.5;"/><text fill="#17302B" font-family="Helvetica" font-size="12" lengthAdjust="spacingAndGlyphs" textLength="109" x="252.2286" y="414.3988">Reprogramar cita</text><ellipse cx="306.3762" cy="474.8461" fill="#FFFFFF" rx="50.3762" ry="12.8774" style="stroke: #13917D; stroke-width: 1.5;"/><text fill="#17302B" font-family="Helvetica" font-size="12" lengthAdjust="spacingAndGlyphs" textLength="67" x="272.8762" y="478.3305">Anular cita</text><ellipse cx="306.4558" cy="712.7599" fill="#FFFFFF" rx="61.9558" ry="14.7912" style="stroke: #13917D; stroke-width: 1.5;"/><text fill="#17302B" font-family="Helvetica" font-size="12" lengthAdjust="spacingAndGlyphs" textLength="95" x="258.9558" y="716.2443">Gestionar citas</text><ellipse cx="306.4077" cy="781.0503" fill="#FFFFFF" rx="75.9077" ry="17.5815" style="stroke: #13917D; stroke-width: 1.5;"/><text fill="#17302B" font-family="Helvetica" font-size="12" lengthAdjust="spacingAndGlyphs" textLength="128" x="242.4077" y="784.5347">Validar aseguradora</text><ellipse cx="306.4965" cy="850.168" fill="#FFFFFF" rx="68.9965" ry="16.1993" style="stroke: #13917D; stroke-width: 1.5;"/><text fill="#17302B" font-family="Helvetica" font-size="12" lengthAdjust="spacingAndGlyphs" textLength="112" x="250.4965" y="853.6524">Consultar agenda</text><ellipse cx="306.5946" cy="918.7877" fill="#FFFFFF" rx="74.5946" ry="17.3189" style="stroke: #13917D; stroke-width: 1.5;"/><text fill="#17302B" font-family="Helvetica" font-size="12" lengthAdjust="spacingAndGlyphs" textLength="125" x="244.0946" y="922.272">Registrar asistencia</text><ellipse cx="306.4912" cy="988.767" fill="#FFFFFF" rx="71.9912" ry="16.7982" style="stroke: #13917D; stroke-width: 1.5;"/><text fill="#17302B" font-family="Helvetica" font-size="12" lengthAdjust="spacingAndGlyphs" textLength="119" x="246.9912" y="992.2514">Gestionar usuarios</text><ellipse cx="306.5538" cy="1057.0795" fill="#FFFFFF" rx="66.0538" ry="15.6108" style="stroke: #13917D; stroke-width: 1.5;"/><text fill="#17302B" font-family="Helvetica" font-size="12" lengthAdjust="spacingAndGlyphs" textLength="105" x="254.0538" y="1060.5639">Revisar auditoría</text><ellipse cx="605.289" cy="377.0265" fill="#FFFFFF" rx="73.289" ry="17.0578" style="stroke: #13917D; stroke-width: 1.5;"/><text fill="#17302B" font-family="Helvetica" font-size="12" lengthAdjust="spacingAndGlyphs" textLength="122" x="544.289" y="380.5109">Enviar confirmación</text><ellipse cx="605.4229" cy="307.8533" fill="#FFFFFF" rx="72.4229" ry="16.8846" style="stroke: #13917D; stroke-width: 1.5;"/><text fill="#17302B" font-family="Helvetica" font-size="12" lengthAdjust="spacingAndGlyphs" textLength="120" x="545.4229" y="311.3377">Enviar recordatorio</text><!--MD5=[4b4be03e54178c9ead917d59e65d8b01]
entity Paciente--><ellipse cx="73.5" cy="350.4688" fill="#FEFECE" rx="8" ry="8" style="stroke: #2F5D56; stroke-width: 1.5;"/><path d="M73.5,358.4688 L73.5,385.4688 M60.5,366.4688 L86.5,366.4688 M73.5,385.4688 L60.5,400.4688 M73.5,385.4688 L86.5,400.4688 " fill="none" style="stroke: #2F5D56; stroke-width: 1.5;"/><text fill="#17302B" font-family="Helvetica" font-size="12" lengthAdjust="spacingAndGlyphs" textLength="55" x="46" y="414.1074">Paciente</text><!--MD5=[9656beda4dfe32417d164e38b0969508]
entity Admision--><ellipse cx="73.5" cy="723.4688" fill="#FEFECE" rx="8" ry="8" style="stroke: #2F5D56; stroke-width: 1.5;"/><path d="M73.5,731.4688 L73.5,758.4688 M60.5,739.4688 L86.5,739.4688 M73.5,758.4688 L60.5,773.4688 M73.5,758.4688 L86.5,773.4688 " fill="none" style="stroke: #2F5D56; stroke-width: 1.5;"/><text fill="#17302B" font-family="Helvetica" font-size="12" lengthAdjust="spacingAndGlyphs" textLength="135" x="6" y="787.1074">Personal de Admisión</text><!--MD5=[5f5169c78fc3705eb8becdd82156f160]
entity Médico--><ellipse cx="73.5" cy="860.4688" fill="#FEFECE" rx="8" ry="8" style="stroke: #2F5D56; stroke-width: 1.5;"/><path d="M73.5,868.4688 L73.5,895.4688 M60.5,876.4688 L86.5,876.4688 M73.5,895.4688 L60.5,910.4688 M73.5,895.4688 L86.5,910.4688 " fill="none" style="stroke: #2F5D56; stroke-width: 1.5;"/><text fill="#17302B" font-family="Helvetica" font-size="12" lengthAdjust="spacingAndGlyphs" textLength="44" x="51.5" y="924.1074">Médico</text><!--MD5=[2e903384ba6a94be9c906ea46910cc3f]
entity Administrador--><ellipse cx="73.5" cy="997.4688" fill="#FEFECE" rx="8" ry="8" style="stroke: #2F5D56; stroke-width: 1.5;"/><path d="M73.5,1005.4688 L73.5,1032.4688 M60.5,1013.4688 L86.5,1013.4688 M73.5,1032.4688 L60.5,1047.4688 M73.5,1032.4688 L86.5,1047.4688 " fill="none" style="stroke: #2F5D56; stroke-width: 1.5;"/><text fill="#17302B" font-family="Helvetica" font-size="12" lengthAdjust="spacingAndGlyphs" textLength="87" x="30" y="1061.1074">Administrador</text><!--MD5=[c4d2babf7449b49301d3d69a3045c3ff]
entity Mensajeria--><ellipse cx="836" cy="314.4688" fill="#FEFECE" rx="8" ry="8" style="stroke: #2F5D56; stroke-width: 1.5;"/><path d="M836,322.4688 L836,349.4688 M823,330.4688 L849,330.4688 M836,349.4688 L823,364.4688 M836,349.4688 L849,364.4688 " fill="none" style="stroke: #2F5D56; stroke-width: 1.5;"/><text fill="#17302B" font-family="Helvetica" font-size="12" lengthAdjust="spacingAndGlyphs" textLength="140" x="766" y="378.1074">Servicio de Mensajería</text><!--MD5=[08eedb055ee4b1c95aa977c849e848ee]
link Paciente to UC01--><!--MD5=[139e0e8394630919bdb9e450180da6f1]
link Paciente to UC02--><path d="M78.47,417.0287 C88.16,500.2687 116.38,690.4588 171,681.9688 C172.68,681.7088 171.54,630.5888 171.13,614.0588 " fill="none" id="Paciente-&gt;UC02" style="stroke: #A80036; stroke-width: 1.0;"/><polygon fill="#A80036" points="171,609.0188,167.2327,618.1186,171.1285,614.0171,175.23,617.913,171,609.0188" style="stroke: #A80036; stroke-width: 1.0;"/><!--MD5=[34232b9be475eedecdcc8bce077082cd]
link Paciente to UC03--><!--MD5=[48519543cd551f7a28712dd298f33d40]
link Paciente to UC04--><!--MD5=[7465b827f3e8dfc1be8b0da97fc1ca8f]
link Paciente to UC05--><!--MD5=[6929e6a2eb100e5520bf9754a2ea1777]
link Paciente to UC06--><!--MD5=[8054315d95a25f6609ee0ef612116cc0]
link Paciente to UC07--><!--MD5=[42055761b00539111196d08903050ecb]
link Paciente to UC08--><!--MD5=[24705bf0bf5202ca53413869c3e33680]
link UC06 to UC09--><path d="M346.91,355.9788 C372.88,362.0988 407.74,369.4088 439,372.9688 C467.5,376.2088 498.92,377.5388 526.67,377.9388 " fill="none" id="UC06-&gt;UC09" style="stroke: #A80036; stroke-width: 1.0; stroke-dasharray: 7.0,7.0;"/><polygon fill="#A80036" points="531.8,378.0087,522.8581,373.8806,526.8005,377.9373,522.7438,381.8798,531.8,378.0087" style="stroke: #A80036; stroke-width: 1.0;"/><text fill="#000000" font-family="Helvetica" font-size="12" lengthAdjust="spacingAndGlyphs" textLength="59" x="440" y="370.1074">«include»</text><!--MD5=[b6dae104ba7e6c09193f49b3b7f9ca36]
link UC06 to UC10--><path d="M357.55,339.5688 C406.63,333.2888 481.84,323.6588 536.36,316.6888 " fill="none" id="UC06-&gt;UC10" style="stroke: #A80036; stroke-width: 1.0; stroke-dasharray: 7.0,7.0;"/><polygon fill="#A80036" points="541.57,316.0187,532.1303,313.2094,536.6115,316.6618,533.1592,321.143,541.57,316.0187" style="stroke: #A80036; stroke-width: 1.0;"/><text fill="#000000" font-family="Helvetica" font-size="12" lengthAdjust="spacingAndGlyphs" textLength="59" x="440" y="319.1074">«include»</text><!--MD5=[951cc444d6ba785eda940a1d73b04ac9]
link Admision to UC11--><path d="M141.05,760.5487 C152.4,758.7388 163.07,754.4088 171,745.9688 C171.93,744.9788 171.48,727.2987 171.19,718.2388 " fill="none" id="Admision-&gt;UC11" style="stroke: #A80036; stroke-width: 1.0;"/><polygon fill="#A80036" points="171,713.0587,167.3107,722.1905,171.1713,718.0558,175.306,721.9164,171,713.0587" style="stroke: #A80036; stroke-width: 1.0;"/><!--MD5=[d5c373c42b9e6ba69fe74a815b737ca9]
link Admision to UC12--><!--MD5=[574a563da8cc4ed2155ece94b982581c]
link Médico to UC13--><path d="M95.59,895.2288 C117.78,900.3588 152.06,903.9188 171,883.9688 C171.97,882.9388 171.49,864.3688 171.18,855.1188 " fill="none" id="Médico-&gt;UC13" style="stroke: #A80036; stroke-width: 1.0;"/><polygon fill="#A80036" points="171,850.0587,167.3107,859.1905,171.1713,855.0558,175.306,858.9164,171,850.0587" style="stroke: #A80036; stroke-width: 1.0;"/><!--MD5=[5e341de22c013c54f6dd3d8a33bbad51]
link Médico to UC14--><!--MD5=[84f8d2915e29f43a4e8cc0c937d06728]
link Administrador to UC15--><!--MD5=[7e4034f1821b7710787dc33aa787d90a]
link Administrador to UC16--><!--MD5=[22108dc756df387c7a1ed30496274954]
link UC09 to Mensajeria--><path d="M667.73,367.8588 C698.01,363.3488 734.66,357.8987 765.93,353.2488 " fill="none" id="UC09-Mensajeria" style="stroke: #A80036; stroke-width: 1.0;"/><!--MD5=[ad954fb7df48304eaf972a9708e6901a]
link UC10 to Mensajeria--><path d="M666.54,317.1688 C696.95,321.8188 734.03,327.4988 765.66,332.3488 " fill="none" id="UC10-Mensajeria" style="stroke: #A80036; stroke-width: 1.0;"/><!--MD5=[61c7c07ced43ac4aa425d448b4336a89]
@startuml
title 02 - Diagrama de Casos de Uso - MediCitas Anglo

left to right direction

skinparam shadowing false
skinparam roundCorner 10
skinparam defaultFontName "Helvetica"
skinparam defaultFontSize 12

skinparam actor {
  BorderColor #2F5D56
  FontColor #17302B
}

skinparam usecase {
  BackgroundColor #FFFFFF
  BorderColor #13917D
  FontColor #17302B
}

skinparam package {
  BackgroundColor #F4F8F7
  BorderColor #A9C4BD
  FontColor #17302B
  BorderStyle dashed
}

rectangle "MediCitas Anglo" {

  package "Fase 1 - Autoatención" {
    usecase "Registrar paciente" as UC01
    usecase "Identificar paciente" as UC02
    usecase "Asociar aseguradora" as UC03
    usecase "Consultar especialidades" as UC04
    usecase "Consultar disponibilidad" as UC05
    usecase "Reservar cita" as UC06
    usecase "Reprogramar cita" as UC07
    usecase "Anular cita" as UC08
  }

  package "Fase 2 - Gestión Interna" {
    usecase "Gestionar citas" as UC11
    usecase "Validar aseguradora" as UC12
    usecase "Consultar agenda" as UC13
    usecase "Registrar asistencia" as UC14
    usecase "Gestionar usuarios" as UC15
    usecase "Revisar auditoría" as UC16
  }

  package "Notificaciones" {
    usecase "Enviar confirmación" as UC09
    usecase "Enviar recordatorio" as UC10
  }
}

actor Paciente
actor "Personal de Admisión" as Admision
actor Médico
actor Administrador
actor "Servicio de Mensajería" as Mensajeria

Paciente - -> UC01
Paciente - -> UC02
Paciente - -> UC03
Paciente - -> UC04
Paciente - -> UC05
Paciente - -> UC06
Paciente - -> UC07
Paciente - -> UC08

UC06 ..> UC09 : <<include>>
UC06 ..> UC10 : <<include>>

Admision - -> UC11
Admision - -> UC12

Médico - -> UC13
Médico - -> UC14

Administrador - -> UC15
Administrador - -> UC16

UC09 - - Mensajeria
UC10 - - Mensajeria

@enduml

PlantUML version 1.2020.02(Sun Mar 01 10:22:07 UTC 2020)
(GPL source distribution)
Java Runtime: OpenJDK Runtime Environment
JVM: OpenJDK 64-Bit Server VM
Java Version: 17.0.20.1+1
Operating System: Linux
Default Encoding: UTF-8
Language: en
Country: null
--></g></svg>